<svg width="200" height="69" viewBox="0 0 200 69" fill="none" xmlns="http://www.w3.org/2000/svg">
<path fill-rule="evenodd" clip-rule="evenodd" d="M13.4 8.60025C12.2596 8.60025 11.1658 9.05328 10.3594 9.85969C9.55304 10.6661 9.1 11.7598 9.1 12.9002V55.9002C9.1 57.0407 9.55304 58.1344 10.3594 58.9408C11.1658 59.7472 12.2596 60.2002 13.4 60.2002L157 60.1998C157.888 57.682 159.536 55.5017 161.715 53.9596C163.895 52.4174 166.499 51.5892 169.169 51.5892C171.839 51.5892 174.443 52.4174 176.623 53.9596C178.802 55.5017 180.45 57.682 181.338 60.1998H186.369C187.509 60.1998 188.603 59.7467 189.41 58.9403C190.216 58.1339 190.669 57.0402 190.669 55.8998V12.8998C190.669 11.7593 190.216 10.6656 189.41 9.8592C188.603 9.05279 187.509 8.59976 186.369 8.59976H181.338C180.45 11.1175 178.802 13.2978 176.623 14.84C174.443 16.3821 171.839 17.2103 169.169 17.2103C166.499 17.2103 163.895 16.3821 161.715 14.84C159.536 13.2978 157.888 11.1175 157 8.59976L13.4 8.60025ZM0.5 12.9002C0.5 9.47896 1.8591 6.19779 4.27832 3.77857C6.69754 1.35935 9.97871 0.000244141 13.4 0.000244141L160.569 -0.000244141C161.709 -0.000244141 162.803 0.452791 163.61 1.2592C164.416 2.0656 164.869 3.15933 164.869 4.29976C164.869 5.44019 165.322 6.53391 166.128 7.34031C166.935 8.14672 168.029 8.59976 169.169 8.59976C170.309 8.59976 171.403 8.14672 172.21 7.34031C173.016 6.53391 173.469 5.44019 173.469 4.29976C173.469 3.15933 173.922 2.0656 174.728 1.2592C175.535 0.452791 176.629 -0.000244141 177.769 -0.000244141H186.369C189.79 -0.000244141 193.071 1.35886 195.491 3.77808C197.91 6.1973 199.269 9.47846 199.269 12.8998V55.8998C199.269 59.3211 197.91 62.6022 195.491 65.0214C193.071 67.4407 189.79 68.7998 186.369 68.7998H177.769C176.629 68.7998 175.535 68.3467 174.728 67.5403C173.922 66.7339 173.469 65.6402 173.469 64.4998C173.469 63.3593 173.016 62.2656 172.21 61.4592C171.403 60.6528 170.309 60.1998 169.169 60.1998C168.029 60.1998 166.935 60.6528 166.128 61.4592C165.322 62.2656 164.869 63.3593 164.869 64.4998C164.869 65.6402 164.416 66.7339 163.61 67.5403C162.803 68.3467 161.709 68.7998 160.569 68.7998L13.4 68.8003C9.97871 68.8003 6.69754 67.4412 4.27832 65.0219C1.8591 62.6027 0.5 59.3215 0.5 55.9002V12.9002ZM169.169 21.4998C170.309 21.4998 171.403 21.9528 172.21 22.7592C173.016 23.5656 173.469 24.6593 173.469 25.7998V27.9498C173.469 29.0902 173.016 30.1839 172.21 30.9903C171.403 31.7967 170.309 32.2498 169.169 32.2498C168.029 32.2498 166.935 31.7967 166.128 30.9903C165.322 30.1839 164.869 29.0902 164.869 27.9498V25.7998C164.869 24.6593 165.322 23.5656 166.128 22.7592C166.935 21.9528 168.029 21.4998 169.169 21.4998ZM173.469 40.8498C173.469 39.7093 173.016 38.6156 172.21 37.8092C171.403 37.0028 170.309 36.5498 169.169 36.5498C168.029 36.5498 166.935 37.0028 166.128 37.8092C165.322 38.6156 164.869 39.7093 164.869 40.8498V42.9998C164.869 44.1402 165.322 45.2339 166.128 46.0403C166.935 46.8467 168.029 47.2998 169.169 47.2998C170.309 47.2998 171.403 46.8467 172.21 46.0403C173.016 45.2339 173.469 44.1402 173.469 42.9998V40.8498Z" fill="#F31260"/>
<path d="M43.7747 49L41.7587 42.952H28.3667L26.3507 49H19.1987L30.9587 15.4H39.1667L50.9747 49H43.7747ZM30.4787 36.76H39.6947L35.0867 23.032L30.4787 36.76ZM64.7169 49.672C61.1009 49.672 58.0769 48.456 55.6449 46.024C53.2449 43.592 52.0449 40.584 52.0449 37C52.0449 33.416 53.2449 30.408 55.6449 27.976C58.0769 25.544 61.1009 24.328 64.7169 24.328C67.0529 24.328 69.1809 24.888 71.1009 26.008C73.0209 27.128 74.4769 28.632 75.4689 30.52L70.1409 33.64C69.6609 32.648 68.9249 31.864 67.9329 31.288C66.9729 30.712 65.8849 30.424 64.6689 30.424C62.8129 30.424 61.2769 31.048 60.0609 32.296C58.8449 33.512 58.2369 35.08 58.2369 37C58.2369 38.888 58.8449 40.456 60.0609 41.704C61.2769 42.92 62.8129 43.528 64.6689 43.528C65.9169 43.528 67.0209 43.256 67.9809 42.712C68.9729 42.136 69.7089 41.352 70.1889 40.36L75.5649 43.432C74.5089 45.32 73.0209 46.84 71.1009 47.992C69.1809 49.112 67.0529 49.672 64.7169 49.672ZM96.7048 25H102.897V49H96.7048V46.168C94.8488 48.504 92.2408 49.672 88.8808 49.672C85.6808 49.672 82.9288 48.456 80.6248 46.024C78.3528 43.56 77.2168 40.552 77.2168 37C77.2168 33.448 78.3528 30.456 80.6248 28.024C82.9288 25.56 85.6808 24.328 88.8808 24.328C92.2408 24.328 94.8488 25.496 96.7048 27.832V25ZM85.2808 41.896C86.5288 43.144 88.1128 43.768 90.0328 43.768C91.9528 43.768 93.5368 43.144 94.7848 41.896C96.0648 40.616 96.7048 38.984 96.7048 37C96.7048 35.016 96.0648 33.4 94.7848 32.152C93.5368 30.872 91.9528 30.232 90.0328 30.232C88.1128 30.232 86.5288 30.872 85.2808 32.152C84.0328 33.4 83.4088 35.016 83.4088 37C83.4088 38.984 84.0328 40.616 85.2808 41.896ZM114.704 29.128C115.28 27.592 116.224 26.44 117.536 25.672C118.88 24.904 120.368 24.52 122 24.52V31.432C120.112 31.208 118.416 31.592 116.912 32.584C115.44 33.576 114.704 35.224 114.704 37.528V49H108.512V25H114.704V29.128ZM142.97 25H149.162V49H142.97V46.168C141.114 48.504 138.506 49.672 135.146 49.672C131.946 49.672 129.194 48.456 126.89 46.024C124.618 43.56 123.482 40.552 123.482 37C123.482 33.448 124.618 30.456 126.89 28.024C129.194 25.56 131.946 24.328 135.146 24.328C138.506 24.328 141.114 25.496 142.97 27.832V25ZM131.546 41.896C132.794 43.144 134.378 43.768 136.298 43.768C138.218 43.768 139.802 43.144 141.05 41.896C142.33 40.616 142.97 38.984 142.97 37C142.97 35.016 142.33 33.4 141.05 32.152C139.802 30.872 138.218 30.232 136.298 30.232C134.378 30.232 132.794 30.872 131.546 32.152C130.298 33.4 129.674 35.016 129.674 37C129.674 38.984 130.298 40.616 131.546 41.896Z" fill="#F31260"/>
</svg>
